<svg
            width="192"
            height="56"
            viewBox="0 0 192 56"
            fill="none"
            xmlns="http://www.w3.org/2000/svg"
          >
            <g filter="url(#filter0_d_1_2165)">
              <rect
                x="4"
                width="184"
                height="48"
                rx="24"
                fill="white"
                shape-rendering="crispEdges"
              />
              <rect
                x="11"
                y="7"
                width="34"
                height="34"
                rx="17"
                fill="#E65F2B"
              />
              <path
                fill-rule="evenodd"
                clip-rule="evenodd"
                d="M28 15C28.5523 15 29 15.4477 29 16V23H36C36.5523 23 37 23.4477 37 24C37 24.5523 36.5523 25 36 25H29V32C29 32.5523 28.5523 33 28 33C27.4477 33 27 32.5523 27 32V25H20C19.4477 25 19 24.5523 19 24C19 23.4477 19.4477 23 20 23H27V16C27 15.4477 27.4477 15 28 15Z"
                fill="white"
              />
              <path
                d="M66.2074 20.3438C66.1278 19.5994 65.7926 19.0199 65.2017 18.6051C64.6165 18.1903 63.8551 17.983 62.9176 17.983C62.2585 17.983 61.6932 18.0824 61.2216 18.2812C60.75 18.4801 60.3892 18.75 60.1392 19.0909C59.8892 19.4318 59.7614 19.821 59.7557 20.2585C59.7557 20.6222 59.8381 20.9375 60.0028 21.2045C60.1733 21.4716 60.4034 21.6989 60.6932 21.8864C60.983 22.0682 61.304 22.2216 61.6562 22.3466C62.0085 22.4716 62.3636 22.5767 62.7216 22.6619L64.358 23.071C65.017 23.2244 65.6506 23.4318 66.2585 23.6932C66.8722 23.9545 67.4205 24.2841 67.9034 24.6818C68.392 25.0795 68.7784 25.5597 69.0625 26.1222C69.3466 26.6847 69.4886 27.3437 69.4886 28.0994C69.4886 29.1222 69.2273 30.0227 68.7045 30.8011C68.1818 31.5739 67.4261 32.179 66.4375 32.6165C65.4545 33.0483 64.2642 33.2642 62.8665 33.2642C61.5085 33.2642 60.3295 33.054 59.3295 32.6335C58.3352 32.2131 57.5568 31.5994 56.9943 30.7926C56.4375 29.9858 56.1364 29.0028 56.0909 27.8438H59.2017C59.2472 28.4517 59.4347 28.9574 59.7642 29.3608C60.0938 29.7642 60.5227 30.0653 61.0511 30.2642C61.5852 30.4631 62.1818 30.5625 62.8409 30.5625C63.5284 30.5625 64.1307 30.4602 64.6477 30.2557C65.1705 30.0455 65.5795 29.7557 65.875 29.3864C66.1705 29.0114 66.321 28.5739 66.3267 28.0739C66.321 27.6193 66.1875 27.2443 65.9261 26.9489C65.6648 26.6477 65.2983 26.3977 64.8267 26.1989C64.3608 25.9943 63.8153 25.8125 63.1903 25.6534L61.2045 25.142C59.767 24.7727 58.6307 24.2131 57.7955 23.4631C56.9659 22.7074 56.5511 21.7045 56.5511 20.4545C56.5511 19.4261 56.8295 18.5256 57.3864 17.7528C57.9489 16.9801 58.7131 16.3807 59.679 15.9545C60.6449 15.5227 61.7386 15.3068 62.9602 15.3068C64.1989 15.3068 65.2841 15.5227 66.2159 15.9545C67.1534 16.3807 67.8892 16.9744 68.4233 17.7358C68.9574 18.4915 69.233 19.3608 69.25 20.3438H66.2074ZM75.9382 33.2642C75.1087 33.2642 74.3615 33.1165 73.6967 32.821C73.0376 32.5199 72.5149 32.0767 72.1286 31.4915C71.7479 30.9062 71.5575 30.1847 71.5575 29.3267C71.5575 28.5881 71.6939 27.9773 71.9666 27.4943C72.2393 27.0114 72.6115 26.625 73.0831 26.3352C73.5547 26.0455 74.0859 25.8267 74.6768 25.679C75.2734 25.5256 75.8899 25.4148 76.5263 25.3466C77.2933 25.267 77.9155 25.196 78.3928 25.1335C78.87 25.0653 79.2166 24.9631 79.4325 24.8267C79.6541 24.6847 79.7649 24.4659 79.7649 24.1705V24.1193C79.7649 23.4773 79.5746 22.9801 79.1939 22.6278C78.8132 22.2756 78.2649 22.0994 77.549 22.0994C76.7933 22.0994 76.1939 22.2642 75.7507 22.5938C75.3132 22.9233 75.0178 23.3125 74.8643 23.7614L71.9837 23.3523C72.2109 22.5568 72.5859 21.892 73.1087 21.358C73.6314 20.8182 74.2706 20.4148 75.0263 20.1477C75.782 19.875 76.6172 19.7386 77.532 19.7386C78.1626 19.7386 78.7905 19.8125 79.4155 19.9602C80.0405 20.108 80.6115 20.3523 81.1286 20.6932C81.6456 21.0284 82.0604 21.4858 82.3729 22.0653C82.6911 22.6449 82.8501 23.3693 82.8501 24.2386V33H79.8842V31.2017H79.782C79.5945 31.5653 79.3303 31.9062 78.9893 32.2244C78.6541 32.5369 78.2308 32.7898 77.7195 32.983C77.2138 33.1705 76.62 33.2642 75.9382 33.2642ZM76.7393 30.9972C77.3587 30.9972 77.8956 30.875 78.3501 30.6307C78.8047 30.3807 79.1541 30.0511 79.3984 29.642C79.6484 29.233 79.7734 28.7869 79.7734 28.304V26.7614C79.6768 26.8409 79.5121 26.9148 79.2791 26.983C79.0518 27.0511 78.7962 27.1108 78.5121 27.1619C78.228 27.2131 77.9467 27.2585 77.6683 27.2983C77.3899 27.3381 77.1484 27.3722 76.9439 27.4006C76.4837 27.4631 76.0717 27.5653 75.7081 27.7074C75.3445 27.8494 75.0575 28.0483 74.8473 28.304C74.6371 28.554 74.532 28.8778 74.532 29.2756C74.532 29.8438 74.7393 30.2727 75.1541 30.5625C75.5689 30.8523 76.0973 30.9972 76.7393 30.9972ZM97.1768 19.9091L92.5149 33H89.1058L84.4439 19.9091H87.7337L90.7422 29.6335H90.8786L93.8956 19.9091H97.1768ZM104.662 33.2557C103.349 33.2557 102.216 32.983 101.261 32.4375C100.313 31.8864 99.5824 31.108 99.071 30.1023C98.5597 29.0909 98.304 27.9006 98.304 26.5312C98.304 25.1847 98.5597 24.0028 99.071 22.9858C99.5881 21.9631 100.31 21.1676 101.236 20.5994C102.162 20.0256 103.25 19.7386 104.5 19.7386C105.307 19.7386 106.068 19.8693 106.784 20.1307C107.506 20.3864 108.142 20.7841 108.693 21.3239C109.25 21.8636 109.688 22.5511 110.006 23.3864C110.324 24.2159 110.483 25.2045 110.483 26.3523V27.2983H99.7528V25.2188H107.526C107.52 24.6278 107.392 24.1023 107.142 23.642C106.892 23.1761 106.543 22.8097 106.094 22.5426C105.651 22.2756 105.134 22.142 104.543 22.142C103.912 22.142 103.358 22.2955 102.881 22.6023C102.403 22.9034 102.031 23.3011 101.764 23.7955C101.503 24.2841 101.369 24.821 101.364 25.4062V27.2216C101.364 27.983 101.503 28.6364 101.781 29.1818C102.06 29.7216 102.449 30.1364 102.949 30.4261C103.449 30.7102 104.034 30.8523 104.705 30.8523C105.153 30.8523 105.56 30.7898 105.923 30.6648C106.287 30.5341 106.602 30.3438 106.869 30.0938C107.136 29.8438 107.338 29.5341 107.474 29.1648L110.355 29.4886C110.173 30.25 109.827 30.9148 109.315 31.483C108.81 32.0455 108.162 32.483 107.372 32.7955C106.582 33.1023 105.679 33.2557 104.662 33.2557ZM133.526 15.5455V33H130.714L122.489 21.1108H122.344V33H119.183V15.5455H122.012L130.228 27.4432H130.381V15.5455H133.526ZM142.631 33.2557C141.318 33.2557 140.185 32.983 139.23 32.4375C138.281 31.8864 137.551 31.108 137.04 30.1023C136.528 29.0909 136.273 27.9006 136.273 26.5312C136.273 25.1847 136.528 24.0028 137.04 22.9858C137.557 21.9631 138.278 21.1676 139.205 20.5994C140.131 20.0256 141.219 19.7386 142.469 19.7386C143.276 19.7386 144.037 19.8693 144.753 20.1307C145.474 20.3864 146.111 20.7841 146.662 21.3239C147.219 21.8636 147.656 22.5511 147.974 23.3864C148.293 24.2159 148.452 25.2045 148.452 26.3523V27.2983H137.722V25.2188H145.494C145.489 24.6278 145.361 24.1023 145.111 23.642C144.861 23.1761 144.511 22.8097 144.062 22.5426C143.619 22.2756 143.102 22.142 142.511 22.142C141.881 22.142 141.327 22.2955 140.849 22.6023C140.372 22.9034 140 23.3011 139.733 23.7955C139.472 24.2841 139.338 24.821 139.332 25.4062V27.2216C139.332 27.983 139.472 28.6364 139.75 29.1818C140.028 29.7216 140.418 30.1364 140.918 30.4261C141.418 30.7102 142.003 30.8523 142.673 30.8523C143.122 30.8523 143.528 30.7898 143.892 30.6648C144.256 30.5341 144.571 30.3438 144.838 30.0938C145.105 29.8438 145.307 29.5341 145.443 29.1648L148.324 29.4886C148.142 30.25 147.795 30.9148 147.284 31.483C146.778 32.0455 146.131 32.483 145.341 32.7955C144.551 33.1023 143.648 33.2557 142.631 33.2557ZM153.693 33L149.994 19.9091H153.139L155.44 29.1136H155.56L157.912 19.9091H161.023L163.375 29.0625H163.503L165.77 19.9091H168.923L165.216 33H162.003L159.548 24.1534H159.369L156.915 33H153.693Z"
                fill="#FFA500"
              />
            </g>
            <defs>
              <filter
                id="filter0_d_1_2165"
                x="0"
                y="0"
                width="192"
                height="56"
                filterUnits="userSpaceOnUse"
                color-interpolation-filters="sRGB"
              >
                <feFlood flood-opacity="0" result="BackgroundImageFix" />
                <feColorMatrix
                  in="SourceAlpha"
                  type="matrix"
                  values="0 0 0 0 0 0 0 0 0 0 0 0 0 0 0 0 0 0 127 0"
                  result="hardAlpha"
                />
                <feOffset dy="4" />
                <feGaussianBlur stdDeviation="2" />
                <feComposite in2="hardAlpha" operator="out" />
                <feColorMatrix
                  type="matrix"
                  values="0 0 0 0 0 0 0 0 0 0 0 0 0 0 0 0 0 0 0.25 0"
                />
                <feBlend
                  mode="normal"
                  in2="BackgroundImageFix"
                  result="effect1_dropShadow_1_2165"
                />
                <feBlend
                  mode="normal"
                  in="SourceGraphic"
                  in2="effect1_dropShadow_1_2165"
                  result="shape"
                />
              </filter>
            </defs>
          </svg>