<svg xmlns="http://www.w3.org/2000/svg" x="0px" y="0px" width="30" height="30" viewBox="0 0 24 24" fill= "gray">
<path d="M12.7,10c-0.8-2.3-3-4-5.7-4c-3.3,0-6,2.7-6,6s2.7,6,6,6c2.6,0,4.8-1.7,5.7-4H17v3h4v-3h2v-4H12.7z M7,14c-1.1,0-2-0.9-2-2 s0.9-2,2-2s2,0.9,2,2S8.1,14,7,14z" opacity=".3"></path><path d="M7,19c-3.9,0-7-3.1-7-7c0-3.9,3.1-7,7-7c2.7,0,5.2,1.6,6.3,4H24v6h-2v3h-6v-3h-2.7C12.2,17.4,9.7,19,7,19z M7,7 c-2.8,0-5,2.2-5,5c0,2.8,2.2,5,5,5c2.1,0,4-1.3,4.7-3.3l0.2-0.7H18v3h2v-3h2v-2H11.9l-0.2-0.7C11,8.3,9.1,7,7,7z"></path><path d="M7,15c-1.7,0-3-1.3-3-3c0-1.7,1.3-3,3-3c1.7,0,3,1.3,3,3C10,13.7,8.7,15,7,15z M7,11c-0.6,0-1,0.4-1,1c0,0.6,0.4,1,1,1 c0.6,0,1-0.4,1-1C8,11.4,7.6,11,7,11z"></path>
</svg>