<svg width="264" height="89" viewBox="0 0 264 89" fill="none" xmlns="http://www.w3.org/2000/svg">
<g filter="url(#filter0_d_3_38)">
<rect x="22" y="14" width="45" height="45" rx="16" fill="#0B2F8A"/>
</g>
<path d="M104.625 33.4205C104.564 32.8826 104.314 32.4659 103.875 32.1705C103.436 31.8712 102.883 31.7216 102.216 31.7216C101.739 31.7216 101.326 31.7973 100.977 31.9489C100.629 32.0966 100.358 32.3011 100.165 32.5625C99.9754 32.8201 99.8807 33.1136 99.8807 33.4432C99.8807 33.7197 99.9451 33.9583 100.074 34.1591C100.206 34.3598 100.379 34.5284 100.591 34.6648C100.807 34.7973 101.038 34.9091 101.284 35C101.53 35.0871 101.767 35.1591 101.994 35.2159L103.131 35.5114C103.502 35.6023 103.883 35.7254 104.273 35.8807C104.663 36.036 105.025 36.2405 105.358 36.4943C105.691 36.7481 105.96 37.0625 106.165 37.4375C106.373 37.8125 106.477 38.2614 106.477 38.7841C106.477 39.4432 106.307 40.0284 105.966 40.5398C105.629 41.0511 105.138 41.4545 104.494 41.75C103.854 42.0455 103.08 42.1932 102.17 42.1932C101.299 42.1932 100.545 42.0549 99.9091 41.7784C99.2727 41.5019 98.7746 41.1098 98.4148 40.6023C98.0549 40.0909 97.8561 39.4848 97.8182 38.7841H99.5795C99.6136 39.2045 99.75 39.5549 99.9886 39.8352C100.231 40.1117 100.54 40.3182 100.915 40.4545C101.294 40.5871 101.708 40.6534 102.159 40.6534C102.655 40.6534 103.097 40.5758 103.483 40.4205C103.873 40.2614 104.18 40.0417 104.403 39.7614C104.627 39.4773 104.739 39.1458 104.739 38.767C104.739 38.4223 104.64 38.1402 104.443 37.9205C104.25 37.7008 103.987 37.5189 103.653 37.375C103.324 37.2311 102.951 37.1042 102.534 36.9943L101.159 36.6193C100.227 36.3655 99.4886 35.9924 98.9432 35.5C98.4015 35.0076 98.1307 34.3561 98.1307 33.5455C98.1307 32.875 98.3125 32.2898 98.6761 31.7898C99.0398 31.2898 99.5322 30.9015 100.153 30.625C100.775 30.3447 101.475 30.2045 102.256 30.2045C103.044 30.2045 103.739 30.3428 104.341 30.6193C104.947 30.8958 105.424 31.2765 105.773 31.7614C106.121 32.2424 106.303 32.7955 106.318 33.4205H104.625ZM110.039 42V33.2727H111.738V42H110.039ZM110.897 31.9261C110.601 31.9261 110.348 31.8277 110.136 31.6307C109.927 31.4299 109.823 31.1913 109.823 30.9148C109.823 30.6345 109.927 30.3958 110.136 30.1989C110.348 29.9981 110.601 29.8977 110.897 29.8977C111.192 29.8977 111.444 29.9981 111.653 30.1989C111.865 30.3958 111.971 30.6345 111.971 30.9148C111.971 31.1913 111.865 31.4299 111.653 31.6307C111.444 31.8277 111.192 31.9261 110.897 31.9261ZM119.282 45.4545C118.589 45.4545 117.993 45.3636 117.493 45.1818C116.996 45 116.591 44.7595 116.277 44.4602C115.962 44.161 115.727 43.8333 115.572 43.4773L117.032 42.875C117.135 43.0417 117.271 43.2178 117.441 43.4034C117.616 43.5928 117.851 43.7538 118.146 43.8864C118.445 44.0189 118.83 44.0852 119.299 44.0852C119.943 44.0852 120.476 43.928 120.896 43.6136C121.316 43.303 121.527 42.8068 121.527 42.125V40.4091H121.419C121.316 40.5947 121.169 40.8011 120.976 41.0284C120.786 41.2557 120.525 41.4527 120.191 41.6193C119.858 41.786 119.424 41.8693 118.89 41.8693C118.201 41.8693 117.58 41.7083 117.027 41.3864C116.477 41.0606 116.042 40.5814 115.72 39.9489C115.402 39.3125 115.243 38.5303 115.243 37.6023C115.243 36.6742 115.4 35.8788 115.714 35.2159C116.032 34.553 116.468 34.0455 117.021 33.6932C117.574 33.3371 118.201 33.1591 118.902 33.1591C119.443 33.1591 119.881 33.25 120.214 33.4318C120.548 33.6098 120.807 33.8182 120.993 34.0568C121.182 34.2955 121.328 34.5057 121.43 34.6875H121.555V33.2727H123.22V42.1932C123.22 42.9432 123.046 43.5587 122.697 44.0398C122.349 44.5208 121.877 44.8769 121.282 45.108C120.691 45.339 120.025 45.4545 119.282 45.4545ZM119.265 40.4602C119.754 40.4602 120.167 40.3466 120.504 40.1193C120.845 39.8883 121.102 39.5587 121.277 39.1307C121.455 38.6989 121.544 38.1818 121.544 37.5795C121.544 36.9924 121.457 36.4754 121.282 36.0284C121.108 35.5814 120.852 35.233 120.515 34.983C120.178 34.7292 119.762 34.6023 119.265 34.6023C118.754 34.6023 118.328 34.7348 117.987 35C117.646 35.2614 117.388 35.6174 117.214 36.0682C117.044 36.5189 116.959 37.0227 116.959 37.5795C116.959 38.1515 117.046 38.6534 117.22 39.0852C117.394 39.517 117.652 39.8542 117.993 40.0966C118.337 40.339 118.762 40.4602 119.265 40.4602ZM128.797 36.8182V42H127.098V33.2727H128.729V34.6932H128.837C129.038 34.2311 129.352 33.8598 129.78 33.5795C130.212 33.2992 130.755 33.1591 131.411 33.1591C132.005 33.1591 132.526 33.2841 132.973 33.5341C133.42 33.7803 133.767 34.1477 134.013 34.6364C134.259 35.125 134.382 35.7292 134.382 36.4489V42H132.684V36.6534C132.684 36.0208 132.519 35.5265 132.189 35.1705C131.86 34.8106 131.407 34.6307 130.831 34.6307C130.437 34.6307 130.087 34.7159 129.78 34.8864C129.477 35.0568 129.237 35.3068 129.059 35.6364C128.884 35.9621 128.797 36.3561 128.797 36.8182ZM151.714 30.3636H153.476V38.017C153.476 38.8314 153.285 39.553 152.902 40.1818C152.519 40.8068 151.982 41.2992 151.288 41.6591C150.595 42.0152 149.783 42.1932 148.851 42.1932C147.923 42.1932 147.112 42.0152 146.419 41.6591C145.726 41.2992 145.188 40.8068 144.805 40.1818C144.423 39.553 144.232 38.8314 144.232 38.017V30.3636H145.987V37.875C145.987 38.4015 146.103 38.8693 146.334 39.2784C146.569 39.6875 146.9 40.0095 147.328 40.2443C147.756 40.4754 148.264 40.5909 148.851 40.5909C149.442 40.5909 149.951 40.4754 150.379 40.2443C150.811 40.0095 151.141 39.6875 151.368 39.2784C151.599 38.8693 151.714 38.4015 151.714 37.875V30.3636ZM157.492 45.2727V33.2727H159.151V34.6875H159.293C159.392 34.5057 159.534 34.2955 159.719 34.0568C159.905 33.8182 160.162 33.6098 160.492 33.4318C160.822 33.25 161.257 33.1591 161.799 33.1591C162.503 33.1591 163.132 33.3371 163.685 33.6932C164.238 34.0492 164.672 34.5625 164.986 35.233C165.305 35.9034 165.464 36.7102 165.464 37.6534C165.464 38.5966 165.306 39.4053 164.992 40.0795C164.678 40.75 164.246 41.267 163.697 41.6307C163.147 41.9905 162.52 42.1705 161.816 42.1705C161.286 42.1705 160.852 42.0814 160.515 41.9034C160.181 41.7254 159.92 41.517 159.731 41.2784C159.541 41.0398 159.395 40.8277 159.293 40.642H159.191V45.2727H157.492ZM159.157 37.6364C159.157 38.25 159.246 38.7879 159.424 39.25C159.602 39.7121 159.859 40.0739 160.197 40.3352C160.534 40.5928 160.947 40.7216 161.435 40.7216C161.943 40.7216 162.367 40.5871 162.708 40.3182C163.049 40.0455 163.306 39.6761 163.481 39.2102C163.659 38.7443 163.748 38.2197 163.748 37.6364C163.748 37.0606 163.661 36.5436 163.486 36.0852C163.316 35.6269 163.058 35.2652 162.714 35C162.373 34.7348 161.947 34.6023 161.435 34.6023C160.943 34.6023 160.526 34.7292 160.185 34.983C159.848 35.2367 159.592 35.5909 159.418 36.0455C159.244 36.5 159.157 37.0303 159.157 37.6364Z" fill="white"/>
<defs>
<filter id="filter0_d_3_38" x="0" y="0" width="264" height="89" filterUnits="userSpaceOnUse" color-interpolation-filters="sRGB">
<feFlood flood-opacity="0" result="BackgroundImageFix"/>
<feColorMatrix in="SourceAlpha" type="matrix" values="0 0 0 0 0 0 0 0 0 0 0 0 0 0 0 0 0 0 127 0" result="hardAlpha"/>
<feMorphology radius="2" operator="erode" in="SourceAlpha" result="effect1_dropShadow_3_38"/>
<feOffset dy="8"/>
<feGaussianBlur stdDeviation="12"/>
<feComposite in2="hardAlpha" operator="out"/>
<feColorMatrix type="matrix" values="0 0 0 0 0.0431373 0 0 0 0 0.184314 0 0 0 0 0.541176 0 0 0 0.6 0"/>
<feBlend mode="normal" in2="BackgroundImageFix" result="effect1_dropShadow_3_38"/>
<feBlend mode="normal" in="SourceGraphic" in2="effect1_dropShadow_3_38" result="shape"/>
</filter>
</defs>
</svg>
